<?xml version="1.0" encoding="utf-8"?>
<!-- Generator: Adobe Illustrator 26.4.1, SVG Export Plug-In . SVG Version: 6.00 Build 0)  -->
<svg version="1.1" id="Layer_1" xmlns="http://www.w3.org/2000/svg" xmlns:xlink="http://www.w3.org/1999/xlink" x="0px" y="0px"
	 viewBox="0 0 41.7 33.7" style="enable-background:new 0 0 41.7 33.7;" xml:space="preserve">
<style type="text/css">
	.st0{fill:#291507;}
	.st1{fill:#BFBFBF;}
	.st2{fill:#CCCCCC;}
</style>
<path class="st0" d="M34.7,25.6l-1,3.1l-1,4c0,0-2.7,1.5-2.9,0.4c-0.2-1,1-1.2,1-1.2l0.4-2.1L28,24.1L34.7,25.6z"/>
<path class="st1" d="M34.7,25.6l-1,3.1l-1,4c0,0-2.7,1.5-2.9,0.4c-0.2-1,1-1.2,1-1.2l0.4-2.1L28,24.1L34.7,25.6z"/>
<path class="st0" d="M17,24.3l-1.9,8.5c0,0-1.5,0.8-2.5,0.4c-1-0.4,0.6-1.5,0.6-1.5s-0.6-5.2-3.7-5.8C6.4,25.3,17,24.3,17,24.3z"/>
<path class="st1" d="M17,24.3l-1.9,8.5c0,0-1.5,0.8-2.5,0.4c-1-0.4,0.6-1.5,0.6-1.5s-0.6-5.2-3.7-5.8C6.4,25.3,17,24.3,17,24.3z"/>
<path class="st0" d="M4.7,14.3c0,0,4.2,1.5,7.9,0.6c0,0,7.3-1,7.9-1.2c0.6-0.2,7.7-0.6,11.4,0c0,0,10.4-8.1,4.6-11.7
	c0,0-2.5,1.2-3.1,0.4c-0.2-0.3-0.1-0.7,0.1-1.1c0.3-0.4,0.6-0.7,1.1-1S35.5,0,36,0c2.2-0.1,6.1,0.7,4.3,7.8c-0.5,2-1.4,3.8-2.7,5.3
	c-0.9,1.2-1.9,2.8-1.5,4.1c0.8,2.3,1,5.8,1,5.8l2.9,4.4c0,0,1.7,5.4,1.7,5.6c0,0.2-2.3,0.6-2.7,0.2c-0.4-0.4,0.6-1.2,0.6-1.2
	s-0.8-1.7-2.3-2.1c-1.5-0.4-5.4-1.9-6-2.5c-0.6-0.6-13.9-4.4-17.7-0.8c-2.1,2-4.3,3.9-6.7,5.6c0,0-1,1.5-2.3,1.5s-1.5-1.9,0-2.1
	c1.5-0.2,3.5-5.2,3.5-5.2s0.6-3.7-2.5-4.4C4,21.7,3,21.6,2.4,21.7c-0.2,0-0.5,0-0.7-0.1c-0.2-0.1-0.4-0.2-0.6-0.3
	c-0.4-0.4-0.7-0.8-1-1.2C0.1,20,0,19.9,0,19.7c0-0.1,0-0.3,0-0.4c0.3-0.8,0.5-1.5,0.7-2.3c0.2-1,1.9-1.9,1.9-1.9s0.4-2.9,1-2.1
	C4,13.5,4.3,13.9,4.7,14.3z"/>
<path class="st2" d="M4.7,14.3c0,0,4.2,1.5,7.9,0.6c0,0,7.3-1,7.9-1.2c0.6-0.2,7.7-0.6,11.4,0c0,0,10.4-8.1,4.6-11.7
	c0,0-2.5,1.2-3.1,0.4c-0.2-0.3-0.1-0.7,0.1-1.1c0.3-0.4,0.6-0.7,1.1-1S35.5,0,36,0c2.2-0.1,6.1,0.7,4.3,7.8c-0.5,2-1.4,3.8-2.7,5.3
	c-0.9,1.2-1.9,2.8-1.5,4.1c0.8,2.3,1,5.8,1,5.8l2.9,4.4c0,0,1.7,5.4,1.7,5.6c0,0.2-2.3,0.6-2.7,0.2c-0.4-0.4,0.6-1.2,0.6-1.2
	s-0.8-1.7-2.3-2.1c-1.5-0.4-5.4-1.9-6-2.5c-0.6-0.6-13.9-4.4-17.7-0.8c-2.1,2-4.3,3.9-6.7,5.6c0,0-1,1.5-2.3,1.5s-1.5-1.9,0-2.1
	c1.5-0.2,3.5-5.2,3.5-5.2s0.6-3.7-2.5-4.4C4,21.7,3,21.6,2.4,21.7c-0.2,0-0.5,0-0.7-0.1c-0.2-0.1-0.4-0.2-0.6-0.3
	c-0.4-0.4-0.7-0.8-1-1.2C0.1,20,0,19.9,0,19.7c0-0.1,0-0.3,0-0.4c0.3-0.8,0.5-1.5,0.7-2.3c0.2-1,1.9-1.9,1.9-1.9s0.4-2.9,1-2.1
	C4,13.5,4.3,13.9,4.7,14.3z"/>
</svg>
