<?xml version="1.0" encoding="utf-8"?>
<svg viewBox="12.884 8.617 245.743 86.193" xmlns="http://www.w3.org/2000/svg">
  <path d="M 34.911 79.92 C 32.152 79.817 29.467 79.019 26.856 77.527 C 24.294 76.085 22.028 74.001 20.057 71.273 C 18.136 68.494 16.633 65.097 15.549 61.082 C 14.465 57.068 14.022 52.436 14.219 47.186 C 14.416 41.935 15.303 37.278 16.879 33.212 C 18.505 29.145 20.501 25.774 22.865 23.098 C 25.23 20.37 27.817 18.363 30.625 17.076 C 33.482 15.789 36.291 15.3 39.05 15.609 C 40.725 15.815 42.203 16.304 43.484 17.076 C 44.764 17.848 45.873 18.8 46.809 19.933 C 47.745 21.013 48.533 22.197 49.174 23.484 C 49.814 24.719 50.332 25.929 50.726 27.112 C 51.021 27.421 51.341 27.576 51.686 27.576 C 52.623 27.627 53.46 26.907 54.199 25.414 C 54.987 23.87 55.652 21.348 56.194 17.848 L 58.264 18.08 C 57.82 19.83 57.328 21.863 56.786 24.179 C 56.293 26.443 55.825 28.785 55.381 31.204 C 54.987 33.623 54.642 36.017 54.347 38.384 C 54.1 40.752 54.027 42.888 54.125 44.792 C 53.386 44.483 52.696 44.278 52.056 44.174 C 51.416 44.02 50.824 43.917 50.282 43.866 C 49.691 43.814 49.149 43.814 48.657 43.866 C 48.755 40.675 48.657 37.612 48.361 34.678 C 48.115 31.745 47.622 29.171 46.883 26.958 C 46.144 24.694 45.159 22.866 43.927 21.477 C 42.745 20.087 41.267 19.315 39.493 19.161 C 37.916 19.006 36.217 19.366 34.394 20.241 C 32.571 21.065 30.847 22.583 29.221 24.796 C 27.595 26.958 26.191 29.866 25.008 33.521 C 23.826 37.175 23.087 41.73 22.791 47.186 C 22.644 50.068 22.742 53.105 23.087 56.295 C 23.432 59.487 24.122 62.446 25.156 65.174 C 26.191 67.85 27.595 70.089 29.369 71.891 C 31.142 73.641 33.384 74.49 36.094 74.438 C 38.163 74.284 40.084 73.718 41.858 72.74 C 43.385 71.865 44.888 70.553 46.366 68.803 C 47.844 67.052 48.903 64.531 49.543 61.237 L 51.982 62.781 C 51.588 64.119 50.997 65.792 50.209 67.799 C 49.42 69.755 48.336 71.659 46.957 73.512 C 45.627 75.365 43.952 76.909 41.932 78.144 C 39.961 79.431 37.621 80.023 34.911 79.92 Z M 94.992 71.505 C 94.844 72.174 94.598 72.92 94.253 73.744 C 93.908 74.516 93.415 75.21 92.775 75.828 C 92.134 76.497 91.346 76.986 90.41 77.295 C 89.523 77.655 88.464 77.681 87.232 77.372 C 86.001 77.063 85.015 76.343 84.277 75.21 C 83.587 74.078 83.094 72.637 82.798 70.887 C 82.355 71.608 81.788 72.38 81.099 73.203 C 80.458 73.975 79.67 74.67 78.734 75.288 C 77.847 75.957 76.813 76.471 75.63 76.832 C 74.497 77.244 73.241 77.398 71.861 77.295 C 69.989 77.141 68.314 76.6 66.836 75.674 C 65.407 74.799 64.2 73.667 63.215 72.277 C 62.23 70.836 61.491 69.214 60.998 67.413 C 60.554 65.612 60.431 63.733 60.629 61.777 C 60.825 59.821 61.318 58.148 62.106 56.759 C 62.944 55.369 63.978 54.262 65.21 53.439 C 66.442 52.564 67.846 51.972 69.422 51.663 C 70.999 51.354 72.625 51.277 74.3 51.432 C 76.517 51.689 78.365 52.384 79.842 53.516 C 81.32 54.597 82.453 55.807 83.242 57.145 C 83.488 54.777 83.562 52.255 83.463 49.579 C 83.365 46.851 82.971 44.38 82.281 42.167 C 81.591 39.903 80.532 38.05 79.103 36.609 C 77.675 35.116 75.729 34.395 73.265 34.447 C 71.541 34.447 70.112 34.781 68.979 35.451 C 67.895 36.068 67.008 36.815 66.319 37.689 C 65.678 38.564 65.235 39.465 64.989 40.392 C 64.742 41.266 64.619 41.961 64.619 42.476 C 64.619 42.991 64.767 43.582 65.062 44.252 C 65.358 44.869 65.777 45.461 66.319 46.027 C 66.861 46.542 67.501 46.954 68.24 47.263 C 68.979 47.572 69.817 47.649 70.753 47.494 C 71.393 47.391 71.96 47.16 72.453 46.799 C 72.945 46.439 73.339 46.027 73.635 45.564 C 73.93 45.101 74.127 44.612 74.226 44.097 C 74.374 43.582 74.448 43.094 74.448 42.631 C 74.448 42.116 74.3 41.678 74.004 41.318 C 73.709 40.906 73.364 40.597 72.97 40.392 C 72.576 40.186 72.132 40.134 71.639 40.237 C 71.147 40.288 70.704 40.52 70.309 40.932 C 70.753 40.88 71.196 40.983 71.639 41.241 C 72.083 41.447 72.305 41.91 72.305 42.631 C 72.305 43.197 72.083 43.634 71.639 43.943 C 71.196 44.2 70.704 44.303 70.162 44.252 C 69.62 44.2 69.127 43.969 68.683 43.557 C 68.24 43.094 68.018 42.399 68.018 41.472 C 68.018 40.597 68.363 39.851 69.053 39.233 C 69.792 38.616 70.629 38.307 71.566 38.307 C 72.699 38.307 73.733 38.77 74.669 39.697 C 75.655 40.623 76.147 41.91 76.147 43.557 C 76.147 44.123 76 44.741 75.704 45.41 C 75.458 46.027 75.064 46.619 74.522 47.186 C 73.98 47.752 73.265 48.241 72.378 48.652 C 71.492 49.013 70.457 49.193 69.275 49.193 C 68.092 49.193 67.033 48.961 66.097 48.498 C 65.161 47.983 64.372 47.366 63.732 46.645 C 63.092 45.873 62.599 45.05 62.254 44.174 C 61.958 43.248 61.811 42.373 61.811 41.55 C 61.811 40.726 62.057 39.697 62.55 38.462 C 63.043 37.175 63.806 35.965 64.841 34.833 C 65.924 33.7 67.255 32.723 68.831 31.899 C 70.457 31.076 72.378 30.664 74.595 30.664 C 80.557 30.664 84.671 32.851 86.937 37.226 C 89.203 41.55 89.572 48.009 88.045 56.604 C 87.454 60.053 87.134 62.858 87.085 65.02 C 87.036 67.181 87.159 68.906 87.454 70.192 C 87.75 71.479 88.168 72.38 88.71 72.894 C 89.302 73.409 89.917 73.718 90.558 73.821 C 91.1 73.924 91.617 73.872 92.11 73.667 C 92.504 73.563 92.873 73.332 93.218 72.972 C 93.613 72.56 93.883 71.942 94.031 71.119 L 94.992 71.505 Z M 82.503 67.567 C 82.453 65.714 82.528 63.758 82.725 61.7 C 82.331 60.104 81.518 58.638 80.286 57.299 C 79.103 55.909 77.748 55.086 76.221 54.829 C 75.088 54.623 73.906 54.648 72.674 54.906 C 71.492 55.112 70.432 55.575 69.496 56.295 C 68.56 56.965 67.821 57.917 67.279 59.152 C 66.737 60.387 66.541 61.906 66.688 63.707 C 66.935 66.487 67.673 68.597 68.905 70.038 C 70.186 71.479 72.058 72.122 74.522 71.968 C 76.394 71.865 77.97 71.376 79.251 70.501 C 80.582 69.575 81.665 68.597 82.503 67.567 Z M 112.58 71.814 C 113.713 71.814 114.772 71.402 115.758 70.578 C 116.743 69.755 117.433 68.365 117.827 66.409 L 119.379 67.027 C 119.231 68.262 118.763 69.523 117.975 70.81 C 117.186 72.045 116.177 73.1 114.945 73.975 C 113.713 74.85 112.309 75.416 110.733 75.674 C 109.205 75.931 107.629 75.674 106.003 74.902 C 104.23 74.027 102.948 72.894 102.16 71.505 C 101.372 70.115 100.879 68.52 100.682 66.718 C 100.485 64.865 100.461 62.884 100.608 60.773 C 100.756 58.612 100.83 56.373 100.83 54.057 C 100.83 52.718 100.805 51.149 100.756 49.347 C 100.756 47.494 100.707 45.538 100.608 43.48 C 100.559 41.421 100.461 39.311 100.313 37.149 C 100.165 34.936 100.017 32.774 99.869 30.664 C 98.194 30.87 96.593 31.127 95.066 31.436 C 93.588 31.693 92.331 32.028 91.297 32.439 C 91.248 31.976 91.248 31.616 91.297 31.359 C 91.297 31.101 91.322 30.87 91.371 30.664 C 91.371 30.406 91.371 30.149 91.371 29.892 C 91.371 29.583 91.322 29.171 91.223 28.657 C 92.406 28.554 93.711 28.451 95.14 28.348 C 96.618 28.245 98.12 28.142 99.648 28.039 C 99.598 27.319 99.549 26.623 99.5 25.954 C 99.45 25.234 99.377 24.539 99.278 23.87 C 99.032 21.451 98.564 19.521 97.874 18.08 C 97.234 16.639 96.519 15.532 95.731 14.76 C 94.943 13.988 94.204 13.473 93.514 13.216 C 92.824 12.907 92.307 12.701 91.962 12.598 L 92.184 11.131 C 93.12 11.543 94.278 11.826 95.657 11.981 C 97.036 12.084 98.465 12.084 99.943 11.981 C 101.471 11.826 102.948 11.569 104.377 11.208 C 105.855 10.848 107.136 10.385 108.22 9.819 C 107.727 11.26 107.284 13.55 106.89 16.69 C 106.545 19.83 106.249 23.484 106.003 27.653 C 108.565 27.498 110.412 27.292 111.546 27.035 C 111.299 27.344 111.176 27.859 111.176 28.579 C 111.176 29.248 111.25 29.866 111.398 30.432 C 110.56 30.329 109.673 30.278 108.738 30.278 C 107.801 30.226 106.841 30.201 105.855 30.201 C 105.707 33.186 105.609 36.3 105.56 39.542 C 105.51 42.785 105.535 46.002 105.634 49.193 C 105.782 52.332 105.979 55.421 106.225 58.457 C 106.52 61.442 106.89 64.196 107.333 66.718 C 107.727 68.52 108.417 69.806 109.402 70.578 C 110.388 71.35 111.447 71.762 112.58 71.814 Z M 182.785 24.333 C 181.751 25.054 180.741 25.851 179.755 26.727 C 178.77 27.601 177.908 28.734 177.169 30.123 C 176.43 31.513 175.863 33.263 175.469 35.373 C 175.075 37.432 174.977 40.057 175.174 43.248 C 175.272 45.358 175.371 47.649 175.469 50.119 C 175.617 52.538 175.642 54.983 175.543 57.454 C 175.445 59.924 175.174 62.318 174.73 64.634 C 174.287 66.898 173.548 68.931 172.513 70.733 C 171.479 72.534 170.099 74.001 168.375 75.133 C 166.651 76.266 164.483 76.883 161.872 76.986 C 159.95 77.089 158.251 76.806 156.772 76.137 C 155.344 75.468 154.088 74.567 153.004 73.435 C 151.969 72.251 151.107 70.913 150.417 69.42 C 149.727 67.876 149.161 66.281 148.717 64.634 C 147.978 66.744 147.092 68.699 146.057 70.501 C 145.072 72.303 143.766 73.744 142.14 74.824 C 140.564 75.957 138.642 76.6 136.376 76.755 C 134.159 76.961 131.474 76.497 128.321 75.365 C 126.005 74.541 124.183 73.358 122.852 71.814 C 121.522 70.218 120.537 68.442 119.896 66.487 C 119.256 64.479 118.886 62.395 118.788 60.233 C 118.689 58.02 118.714 55.909 118.862 53.902 C 119.01 51.844 119.231 49.965 119.527 48.266 C 119.822 46.568 120.044 45.204 120.192 44.174 C 120.685 40.88 121.079 37.767 121.374 34.833 C 121.719 31.848 121.769 29.197 121.522 26.881 C 121.276 24.513 120.635 22.557 119.601 21.013 C 118.615 19.418 117.039 18.363 114.871 17.848 L 115.241 16.304 C 116.177 16.458 117.285 16.639 118.566 16.844 C 119.847 17.05 121.177 17.23 122.557 17.385 C 123.936 17.488 125.291 17.539 126.621 17.539 C 128.001 17.488 129.232 17.333 130.316 17.076 C 130.07 19.083 129.725 21.58 129.282 24.565 C 128.888 27.498 128.493 30.638 128.099 33.984 C 127.705 37.329 127.336 40.752 126.991 44.252 C 126.695 47.7 126.523 50.943 126.474 53.979 C 126.326 60.104 126.991 64.582 128.469 67.413 C 129.996 70.244 132.656 71.633 136.45 71.582 C 138.371 71.53 139.923 70.655 141.106 68.957 C 142.288 67.259 143.199 65.148 143.84 62.626 C 144.53 60.104 144.998 57.428 145.244 54.597 C 145.49 51.715 145.663 49.09 145.762 46.722 C 145.811 44.355 145.811 42.064 145.762 39.851 C 145.712 37.586 145.564 35.502 145.318 33.598 C 145.072 31.693 144.727 29.995 144.283 28.502 C 143.889 26.958 143.397 25.723 142.805 24.796 C 144.185 24.745 145.367 24.771 146.352 24.874 C 147.338 24.976 148.249 25.105 149.087 25.26 C 149.974 25.363 150.885 25.44 151.821 25.491 C 152.757 25.543 153.866 25.44 155.147 25.182 C 154.605 26.778 154.112 28.425 153.669 30.123 C 153.225 31.822 152.831 33.675 152.486 35.682 C 152.191 37.689 151.944 39.928 151.747 42.399 C 151.599 44.818 151.526 47.572 151.526 50.66 C 151.575 53.748 151.723 56.553 151.969 59.075 C 152.264 61.597 152.757 63.733 153.447 65.483 C 154.186 67.181 155.171 68.442 156.403 69.266 C 157.684 70.038 159.334 70.218 161.354 69.806 C 163.374 69.343 164.951 68.288 166.084 66.641 C 167.217 64.994 168.03 62.961 168.523 60.542 C 169.065 58.123 169.36 55.421 169.41 52.436 C 169.508 49.399 169.508 46.311 169.41 43.171 C 169.311 39.98 169.138 37.278 168.892 35.064 C 168.646 32.8 168.252 30.947 167.71 29.506 C 167.217 28.065 166.577 26.984 165.788 26.263 C 165 25.491 164.039 25.002 162.906 24.796 L 163.128 23.098 C 166.133 23.613 169.237 23.793 172.439 23.638 C 175.642 23.433 178.992 22.841 182.49 21.863 L 182.785 24.333 Z M 182.785 73.975 C 183.918 73.563 184.855 73.023 185.594 72.354 C 186.332 71.685 186.899 71.016 187.293 70.347 C 187.786 69.575 188.106 68.777 188.254 67.953 C 189.338 62.703 189.88 57.711 189.88 52.976 C 189.88 48.189 189.535 44.097 188.845 40.7 C 188.648 39.619 188.279 38.616 187.737 37.689 C 187.293 36.917 186.677 36.197 185.889 35.528 C 185.101 34.807 184.091 34.344 182.859 34.138 L 182.785 32.903 C 183.771 33.006 184.682 33.083 185.52 33.134 C 186.407 33.134 187.17 33.134 187.811 33.134 L 189.88 33.134 C 190.471 33.186 191.062 33.212 191.653 33.212 C 192.195 33.263 192.737 33.289 193.279 33.289 C 193.871 33.289 194.437 33.34 194.979 33.443 C 194.831 35.296 194.708 37.201 194.609 39.156 C 194.511 41.061 194.437 42.785 194.388 44.329 C 194.289 46.13 194.24 47.88 194.24 49.579 C 194.141 51.483 194.068 53.568 194.018 55.832 C 193.969 58.046 193.994 60.156 194.092 62.163 C 194.191 64.17 194.363 65.946 194.609 67.49 C 194.856 68.983 195.25 69.961 195.792 70.424 C 196.087 70.63 196.482 70.836 196.974 71.042 C 197.368 71.247 197.886 71.453 198.526 71.659 C 199.216 71.865 200.053 72.071 201.039 72.277 L 201.113 73.589 C 200.127 73.538 199.166 73.538 198.231 73.589 C 197.344 73.589 196.555 73.589 195.866 73.589 C 195.028 73.641 194.24 73.667 193.501 73.667 C 192.466 73.718 191.358 73.821 190.175 73.975 C 189.19 74.078 188.081 74.207 186.85 74.361 C 185.618 74.516 184.436 74.696 183.303 74.902 L 182.785 73.975 Z M 190.397 27.73 C 188.87 27.833 187.687 27.473 186.85 26.649 C 186.012 25.774 185.544 24.796 185.446 23.716 C 185.347 22.635 185.618 21.631 186.259 20.704 C 186.948 19.727 188.032 19.135 189.51 18.929 C 191.037 18.723 192.244 19.057 193.131 19.933 C 194.068 20.808 194.609 21.811 194.757 22.943 C 194.905 24.024 194.634 25.08 193.944 26.109 C 193.254 27.087 192.072 27.627 190.397 27.73 Z M 237.989 93.894 C 236.265 93.894 234.565 93.611 232.89 93.045 C 231.215 92.478 229.761 91.526 228.53 90.188 C 227.298 88.901 226.387 87.151 225.795 84.938 C 225.204 82.777 225.13 80.074 225.573 76.832 C 225.918 74.361 226.19 71.942 226.387 69.575 C 226.633 67.156 226.707 64.942 226.608 62.935 C 226.51 60.876 226.165 59.075 225.573 57.531 C 224.983 55.935 224.022 54.7 222.692 53.825 C 221.46 52.95 219.859 52.436 217.888 52.281 C 215.917 52.127 213.528 52.487 210.72 53.362 C 210.818 55.575 210.941 57.66 211.089 59.615 C 211.286 61.571 211.508 63.321 211.754 64.865 C 211.902 66.409 212.173 67.748 212.567 68.88 C 212.863 69.858 213.281 70.733 213.824 71.505 C 214.366 72.277 215.055 72.56 215.893 72.354 L 215.375 74.284 C 214.39 73.924 213.257 73.667 211.976 73.512 C 210.744 73.358 209.414 73.332 207.985 73.435 C 206.557 73.538 205.078 73.769 203.551 74.13 C 202.073 74.49 200.645 75.03 199.265 75.751 L 198.896 74.438 C 199.635 73.872 200.3 73.358 200.891 72.894 C 201.482 72.431 201.999 71.839 202.443 71.119 C 202.936 70.398 203.354 69.472 203.699 68.339 C 204.044 67.207 204.34 65.689 204.586 63.784 C 204.832 61.88 205.128 59.409 205.473 56.373 C 205.867 53.285 206.212 49.965 206.507 46.413 C 206.803 42.862 207 39.208 207.099 35.451 C 207.197 31.693 207.099 28.193 206.803 24.951 C 206.507 22.532 206.064 20.344 205.473 18.388 C 205.226 17.565 204.906 16.767 204.512 15.995 C 204.167 15.171 203.748 14.451 203.256 13.833 C 202.763 13.164 202.197 12.624 201.556 12.212 C 200.965 11.8 200.3 11.569 199.561 11.517 L 199.561 10.359 C 200.497 10.514 201.556 10.694 202.739 10.9 C 203.97 11.054 205.35 11.157 206.877 11.208 C 208.454 11.26 210.202 11.183 212.124 10.977 C 214.094 10.72 216.287 10.23 218.701 9.51 L 218.701 11.054 C 217.814 11.569 217.001 12.109 216.262 12.675 C 215.523 13.19 214.833 13.936 214.193 14.914 C 213.602 15.892 213.084 17.179 212.641 18.774 C 212.198 20.37 211.877 22.48 211.68 25.105 C 211.434 27.576 211.163 30.432 210.867 33.675 C 210.621 36.917 210.498 40.263 210.498 43.711 C 210.498 44.947 210.498 46.208 210.498 47.494 C 210.498 48.73 210.547 49.965 210.646 51.2 C 213.011 50.325 215.129 49.193 217.001 47.803 C 218.873 46.362 220.45 44.895 221.731 43.403 C 223.012 41.858 223.997 40.366 224.687 38.925 C 225.377 37.484 225.721 36.248 225.721 35.219 C 225.623 34.447 225.45 33.752 225.204 33.134 C 224.958 32.62 224.588 32.156 224.096 31.745 C 223.603 31.282 222.938 31.024 222.1 30.973 L 222.322 29.043 C 225.377 29.454 228.308 29.635 231.116 29.583 C 233.924 29.48 236.732 28.785 239.541 27.498 L 239.836 29.043 C 239.097 29.403 238.432 29.763 237.841 30.123 C 237.25 30.432 236.683 30.818 236.141 31.282 C 235.649 31.745 235.156 32.362 234.663 33.134 C 234.171 33.855 233.629 34.807 233.037 35.991 C 232.594 36.969 232.003 38.101 231.264 39.388 C 230.525 40.675 229.638 41.961 228.604 43.248 C 227.618 44.483 226.46 45.667 225.13 46.799 C 223.849 47.88 222.445 48.755 220.918 49.424 C 224.859 49.321 227.938 50.402 230.155 52.667 C 232.372 54.88 233.629 58.56 233.924 63.707 C 234.023 66.332 233.801 68.983 233.259 71.659 C 232.717 74.284 232.249 76.755 231.855 79.071 C 231.461 81.438 231.313 83.549 231.412 85.402 C 231.51 87.306 232.249 88.798 233.629 89.879 C 234.959 90.96 236.265 91.604 237.545 91.809 C 238.876 92.067 240.107 91.964 241.24 91.5 C 242.374 91.089 243.359 90.368 244.196 89.339 C 245.083 88.31 245.773 87.1 246.266 85.71 C 246.709 84.32 246.906 83.111 246.857 82.082 C 246.808 81.104 246.586 80.28 246.192 79.611 C 245.798 78.993 245.28 78.53 244.64 78.222 C 244.049 77.913 243.408 77.758 242.719 77.758 C 241.339 77.758 240.107 78.299 239.024 79.379 C 237.939 80.461 237.348 81.876 237.25 83.626 C 237.201 84.243 237.274 84.758 237.472 85.17 C 237.669 85.581 237.915 85.89 238.211 86.096 C 238.555 86.354 238.9 86.534 239.245 86.637 C 239.639 86.74 240.009 86.74 240.354 86.637 C 240.994 86.534 241.635 86.148 242.275 85.479 C 242.965 84.81 243.285 84.012 243.236 83.085 C 242.94 83.291 242.571 83.471 242.127 83.626 C 241.684 83.832 241.265 83.934 240.871 83.934 C 240.526 83.934 240.206 83.806 239.91 83.549 C 239.664 83.343 239.541 82.931 239.541 82.313 C 239.541 81.593 239.787 81.026 240.28 80.615 C 240.822 80.255 241.413 80.074 242.053 80.074 C 242.694 80.074 243.285 80.28 243.827 80.692 C 244.369 81.155 244.64 81.824 244.64 82.699 C 244.689 84.398 244.147 85.813 243.014 86.945 C 241.93 88.129 240.649 88.721 239.171 88.721 C 238.087 88.721 237.225 88.387 236.585 87.718 C 235.993 87.1 235.575 86.302 235.328 85.324 C 235.131 84.398 235.131 83.368 235.328 82.236 C 235.575 81.104 236.018 80.049 236.659 79.071 C 237.299 78.144 238.137 77.346 239.171 76.677 C 240.255 76.06 241.536 75.751 243.014 75.751 C 244.049 75.751 244.911 75.957 245.601 76.369 C 246.29 76.78 246.832 77.295 247.226 77.913 C 247.67 78.582 247.99 79.302 248.187 80.074 C 248.384 80.847 248.483 81.618 248.483 82.39 C 248.532 83.883 248.335 85.298 247.892 86.637 C 247.448 88.026 246.783 89.262 245.896 90.343 C 245.009 91.423 243.901 92.273 242.571 92.89 C 241.24 93.559 239.713 93.894 237.989 93.894 Z M 239.097 73.975 C 240.231 73.563 241.167 73.023 241.905 72.354 C 242.644 71.685 243.211 71.016 243.605 70.347 C 244.098 69.575 244.418 68.777 244.566 67.953 C 245.65 62.703 246.192 57.711 246.192 52.976 C 246.192 48.189 245.847 44.097 245.157 40.7 C 244.96 39.619 244.591 38.616 244.049 37.689 C 243.605 36.917 242.989 36.197 242.201 35.528 C 241.413 34.807 240.403 34.344 239.171 34.138 L 239.097 32.903 C 240.083 33.006 240.994 33.083 241.832 33.134 C 242.719 33.134 243.482 33.134 244.123 33.134 L 246.192 33.134 C 246.783 33.186 247.374 33.212 247.965 33.212 C 248.507 33.263 249.049 33.289 249.591 33.289 C 250.182 33.289 250.749 33.34 251.291 33.443 C 251.143 35.296 251.02 37.201 250.921 39.156 C 250.823 41.061 250.749 42.785 250.7 44.329 C 250.601 46.13 250.552 47.88 250.552 49.579 C 250.453 51.483 250.379 53.568 250.33 55.832 C 250.281 58.046 250.306 60.156 250.404 62.163 C 250.503 64.17 250.675 65.946 250.921 67.49 C 251.168 68.983 251.562 69.961 252.104 70.424 C 252.399 70.63 252.794 70.836 253.286 71.042 C 253.68 71.247 254.198 71.453 254.838 71.659 C 255.528 71.865 256.365 72.071 257.351 72.277 L 257.425 73.589 C 256.439 73.538 255.478 73.538 254.543 73.589 C 253.656 73.589 252.867 73.589 252.178 73.589 C 251.34 73.641 250.552 73.667 249.813 73.667 C 248.778 73.718 247.67 73.821 246.487 73.975 C 245.502 74.078 244.394 74.207 243.162 74.361 C 241.93 74.516 240.748 74.696 239.615 74.902 L 239.097 73.975 Z M 246.709 27.73 C 245.182 27.833 243.999 27.473 243.162 26.649 C 242.324 25.774 241.856 24.796 241.758 23.716 C 241.659 22.635 241.93 21.631 242.571 20.704 C 243.26 19.727 244.344 19.135 245.822 18.929 C 247.35 18.723 248.557 19.057 249.443 19.933 C 250.379 20.808 250.921 21.811 251.069 22.943 C 251.217 24.024 250.946 25.08 250.256 26.109 C 249.566 27.087 248.384 27.627 246.709 27.73 Z" fill="#291507" style=""/>
</svg>